<?xml version="1.0" encoding="utf-8"?>
<!-- Generator: Adobe Illustrator 23.0.0, SVG Export Plug-In . SVG Version: 6.00 Build 0)  -->
<svg version="1.1" id="Capa_1" xmlns="http://www.w3.org/2000/svg" xmlns:xlink="http://www.w3.org/1999/xlink" x="0px" y="0px"
	 viewBox="0 0 360 25" style="enable-background:new 0 0 360 25;" xml:space="preserve">
<style type="text/css">
	.st0{fill:#EFEFEF;}
	.st1{fill:#00A5C0;}
</style>
<g>
	<g>
		<path class="st0" d="M-22.5,48.5v-53h7.7C25,11,99.6,20.6,180,20.6c80.4,0,155.1-9.6,194.9-25.1h4.6v53H-22.5z"/>
		<path class="st0" d="M379-4v52H-22V-4h7.1C25,11.5,99.6,21.1,180.1,21.1S335.1,11.5,375-4H379 M380-5h-5.2
			c-38.4,15-111.2,25.1-194.8,25.1S23.7,10-14.7-5H-23v54h403V-5L380-5z"/>
	</g>
</g>
<g>
	<g>
		<g>
			<path class="st0" d="M180.3,34.5c-9.6,0-17.3-4.7-17.3-10.5c0-5.8,7.8-10.5,17.3-10.5c9.6,0,17.3,4.7,17.3,10.5
				C197.7,29.8,189.9,34.5,180.3,34.5z"/>
			<path class="st0" d="M180.3,14c9.3,0,16.8,4.5,16.8,10s-7.6,10-16.8,10s-16.8-4.5-16.8-10S171,14,180.3,14 M180.3,13
				c-9.9,0-17.8,4.9-17.8,11s8,11,17.8,11c9.9,0,17.8-4.9,17.8-11S190.2,13,180.3,13L180.3,13z"/>
		</g>
		<polygon class="st1" points="176.6,20 183.4,19.9 179.9,22.6 		"/>
	</g>
	<g>
		<path class="st0" d="M162.1,20.4c0.7-0.4,1.5-0.9,2.3-1.4l-1.4,1.4c-0.1,0-0.3,0-0.5,0C162.3,20.4,162.2,20.4,162.1,20.4z"/>
		<path class="st0" d="M167.8,16.1c0,0-6.2,4.1-7.2,4.5c-0.7,0.3,0.8,0.3,1.8,0.3c0.4,0,0.7,0,0.7,0L167.8,16.1L167.8,16.1z"/>
	</g>
	<g>
		<path class="st0" d="M196.9,19.6c0.5,0.3,0.9,0.6,1.3,0.9c-0.2,0-0.3,0-0.5,0.1L196.9,19.6z"/>
		<path class="st0" d="M193.7,16.7l3.9,4.3c0,0,2.5-0.2,1.8-0.5C198.6,20.3,193.7,16.7,193.7,16.7L193.7,16.7z"/>
	</g>
</g>
</svg>
